HIERARCHY
ROOT root
{
	OFFSET	0	13.1	24.9
	CHANNELS 6  Xposition Yposition Zposition Xrotation Yrotation Zrotation
	JOINT spine_1
	{
		OFFSET	0	9.99999	0
		CHANNELS 3  Xrotation Yrotation Zrotation
		JOINT spine_2
		{
			OFFSET	0	112	-10
			CHANNELS 3  Xrotation Yrotation Zrotation
			JOINT spine_3
			{
				OFFSET	0	206.5	19.3
				CHANNELS 3  Xrotation Yrotation Zrotation
				JOINT spine_4
				{
					OFFSET	0	110.4	14.6
					CHANNELS 3  Xrotation Yrotation Zrotation
					JOINT neck_1
					{
						OFFSET	0	71.8	-50.3
						CHANNELS 3  Xrotation Yrotation Zrotation
						JOINT neck_2
						{
							OFFSET	0	86.2	-25.8
							CHANNELS 3  Xrotation Yrotation Zrotation
							JOINT head_ee
							{
								OFFSET	0	179.8	-8.7
								CHANNELS 3  Xrotation Yrotation Zrotation
								End Site
								{
									OFFSET	1	0	0
								}
							}
						}
					}
					JOINT left_clavicle
					{
						OFFSET	-43.2	22.4	-70.8
						CHANNELS 3  Xrotation Yrotation Zrotation
						JOINT left_shoulder
						{
							OFFSET	-93.9	-5.79999	48.7
							CHANNELS 3  Xrotation Yrotation Zrotation
							JOINT left_elbow
							{
								OFFSET	-291.4	-30.8	15.2
								CHANNELS 3  Xrotation Yrotation Zrotation
								JOINT left_lowarm_twist
								{
									OFFSET	-110.7	-3.89999	13.6
									CHANNELS 3  Xrotation Yrotation Zrotation
									JOINT left_hand
									{
										OFFSET	-110.7	-3.89999	13.6
										CHANNELS 3  Xrotation Yrotation Zrotation
										JOINT left_ee
										{
											OFFSET	-80.8	-5.10001	12.1
											CHANNELS 3  Xrotation Yrotation Zrotation
											End Site
											{
												OFFSET	1	0	0
											}
										}
									}
								}
							}
						}
					}
					JOINT right_clavicle
					{
						OFFSET	43.2	22.4	-70.8
						CHANNELS 3  Xrotation Yrotation Zrotation
						JOINT right_shoulder
						{
							OFFSET	93.9	-5.79999	48.7
							CHANNELS 3  Xrotation Yrotation Zrotation
							JOINT right_elbow
							{
								OFFSET	291.4	-30.8	15.2
								CHANNELS 3  Xrotation Yrotation Zrotation
								JOINT right_lowarm_twist
								{
									OFFSET	110.7	-3.89999	13.6
									CHANNELS 3  Xrotation Yrotation Zrotation
									JOINT right_hand
									{
										OFFSET	110.7	-3.89999	13.6
										CHANNELS 3  Xrotation Yrotation Zrotation
										JOINT right_ee
										{
											OFFSET	80.8	-5.10001	12.1
											CHANNELS 3  Xrotation Yrotation Zrotation
											End Site
											{
												OFFSET	1	0	0
											}
										}
									}
								}
							}
						}
					}
				}
			}
		}
	}
	JOINT left_hip
	{
		OFFSET	-82.8	-127.5	0.300001
		CHANNELS 3  Xrotation Yrotation Zrotation
		JOINT left_knee
		{
			OFFSET	-28.2	-396.7	2.2
			CHANNELS 3  Xrotation Yrotation Zrotation
			JOINT left_ankle
			{
				OFFSET	-11.7	-411.3	35.4
				CHANNELS 3  Xrotation Yrotation Zrotation
				JOINT left_toes
				{
					OFFSET	0	-60	-88.6
					CHANNELS 3  Xrotation Yrotation Zrotation
					JOINT left_foot_ee
					{
						OFFSET	-22.5	-16.5	-42.2
						CHANNELS 3  Xrotation Yrotation Zrotation
						End Site
						{
							OFFSET	1	0	0
						}
					}
				}
			}
		}
	}
	JOINT right_hip
	{
		OFFSET	82.8	-127.5	0.300001
		CHANNELS 3  Xrotation Yrotation Zrotation
		JOINT right_knee
		{
			OFFSET	28.2	-396.7	2.2
			CHANNELS 3  Xrotation Yrotation Zrotation
			JOINT right_ankle
			{
				OFFSET	11.7	-411.3	35.4
				CHANNELS 3  Xrotation Yrotation Zrotation
				JOINT right_toes
				{
					OFFSET	0	-60	-88.6
					CHANNELS 3  Xrotation Yrotation Zrotation
					JOINT right_foot_ee
					{
						OFFSET	22.5	-16.5	-42.2
						CHANNELS 3  Xrotation Yrotation Zrotation
						End Site
						{
							OFFSET	1	0	0
						}
					}
				}
			}
		}
	}
}
MOTION
Frames: 13
Frame Time: 0.02
3495.5546306 725.091 -1531.52988924 17.8828598211 45.4195362669 -18.9216769017 -5.64497 1.1362 3.15552 -5.63991 0.933208 3.22133 -5.57401 -0.0903006 3.35243 -5.58942 0.439989 3.32469 -13.7681 -10.6216 7.66206 -14.0759 -24.9253 3.89567 -0.0 0.0 -0.0 -4.84056 24.1883 -3.75481 15.0479 -14.0222 74.6828 3.01707 -56.2024 1.61131 34.5083 -0.0948506 -4.34128 1.60869 8.81271 14.1904 -0.0 0.0 -0.0 4.11893 30.4092 -5.4761 0.256937 28.9871 -67.5326 2.25266 48.1288 -1.00609 50.0667 0.973589 6.12041 7.07783 25.5354 -36.9622 0.0 0.0 0.0 8.99281 62.0597 -15.4832 -22.6574 0.254618 3.44502 21.3597 -8.45957 -3.00617 0.0452917 -0.0 -0.0 -0.0 0.0 -0.0 -5.33201 13.046 2.78597 -38.5813 0.378986 -5.79865 38.5975 -3.47037 4.7363 -35.2552 0.0 0.0 0.0 0.0 0.0 
3497.48817722 725.091 -1534.12249577 17.3160465855 43.602014585 -18.1132573819 -5.64497 1.1362 3.15552 -5.63991 0.933208 3.22133 -5.57401 -0.0903006 3.35243 -5.58942 0.439989 3.32469 -13.7681 -10.6216 7.66206 -14.0759 -24.9253 3.89567 -0.0 0.0 -0.0 -4.84056 24.1883 -3.75481 15.0479 -14.0222 74.6828 3.01707 -56.2024 1.61131 34.5083 -0.0948506 -4.34128 1.60869 8.81271 14.1904 -0.0 0.0 -0.0 4.11893 30.4092 -5.4761 0.256937 28.9871 -67.5326 2.25266 48.1288 -1.00609 50.0667 0.973589 6.12041 7.07783 25.5354 -36.9622 0.0 0.0 0.0 8.99281 62.0597 -15.4832 -22.6574 0.254618 3.44502 21.3597 -8.45957 -3.00617 0.0452917 -0.0 -0.0 -0.0 0.0 -0.0 -5.33201 13.046 2.78597 -38.5813 0.378986 -5.79865 38.5975 -3.47037 4.7363 -35.2552 0.0 0.0 0.0 0.0 0.0 
3497.22270103 725.091 -1533.77702313 17.3893163295 43.8471753722 -18.2192619251 -5.64497 1.1362 3.15552 -5.63991 0.933208 3.22133 -5.57401 -0.0903006 3.35243 -5.58942 0.439989 3.32469 -13.7681 -10.6216 7.66206 -14.0759 -24.9253 3.89567 -0.0 0.0 -0.0 -4.84056 24.1883 -3.75481 15.0479 -14.0222 74.6828 3.01707 -56.2024 1.61131 34.5083 -0.0948506 -4.34128 1.60869 8.81271 14.1904 -0.0 0.0 -0.0 4.11893 30.4092 -5.4761 0.256937 28.9871 -67.5326 2.25266 48.1288 -1.00609 50.0667 0.973589 6.12041 7.07783 25.5354 -36.9622 0.0 0.0 0.0 8.99281 62.0597 -15.4832 -22.6574 0.254618 3.44502 21.3597 -8.45957 -3.00617 0.0452917 -0.0 -0.0 -0.0 0.0 -0.0 -5.33201 13.046 2.78597 -38.5813 0.378986 -5.79865 38.5975 -3.47037 4.7363 -35.2552 0.0 0.0 0.0 0.0 0.0 
3491.84817428 724.773 -1530.12446937 18.2573288331 46.8353244615 -19.4975497684 -5.72993 1.17136 3.08054 -5.72518 0.97306 3.14874 -5.65858 -0.0350546 3.29534 -5.67341 0.485541 3.2596 -14.3083 -10.6749 7.22697 -14.67 -24.7254 3.33349 -0.0 0.0 -0.0 -5.19725 24.5881 -4.1368 13.7185 -14.56 75.168 3.04164 -56.4167 1.63176 33.5896 -0.0584722 -4.22962 1.53698 10.5598 14.344 -0.0 0.0 -0.0 4.08133 30.6899 -5.36342 3.09835 29.686 -66.3959 1.9672 44.255 -0.799962 50.1789 0.981644 6.1323 6.97382 24.8277 -36.7262 0.0 0.0 0.0 10.1266 62.1459 -15.7554 -23.6894 0.233622 3.60199 20.4125 -4.60462 -2.8404 -0.0509052 0.0 0.0 -0.0 0.0 -0.0 -5.63776 12.7657 2.6533 -38.2349 0.358308 -5.74959 39.3715 -3.95916 4.80384 -35.1806 0.0 0.0 0.0 0.0 0.0 
3478.54772071 724.59 -1526.0342148 18.9021064238 50.6033366888 -21.1393453231 -5.58989 1.37622 3.05361 -5.58547 1.17922 3.1349 -5.50775 0.174658 3.34459 -5.52268 0.700396 3.27517 -15.0111 -10.4698 5.97725 -15.4205 -23.5476 2.06062 -0.0 0.0 -0.0 -5.13793 24.6124 -4.04973 12.1126 -14.9171 75.4835 2.90607 -55.2036 1.51961 32.7204 -0.0257087 -4.12346 1.40808 11.8922 13.9695 -0.0 0.0 -0.0 3.99874 31.0915 -5.13978 6.62632 30.3076 -66.4314 1.70259 40.1413 -0.62211 50.2925 0.989831 6.14433 6.90369 24.4445 -36.4854 0.0 0.0 0.0 10.8857 61.3819 -15.4518 -25.5732 0.188013 3.88747 21.3543 -3.83593 -2.94956 0.308809 -0.0 -0.0 -0.0 0.0 -0.0 -6.56535 13.1565 3.46655 -37.235 0.300297 -5.6073 40.5896 -4.41438 4.90861 -35.1871 0.0 0.0 0.0 0.0 0.0 
3464.25023025 721.215 -1518.99486546 20.9059143577 52.3007352305 -23.8043585981 -5.79071 1.25967 2.98681 -5.78638 1.06715 3.06083 -5.71662 0.0782729 3.24041 -5.73079 0.58879 3.18749 -15.4256 -10.0078 5.20643 -15.825 -22.193 1.41538 -0.0 0.0 -0.0 -5.25877 23.8943 -4.40684 9.09323 -14.2814 76.5182 2.76496 -53.857 1.40468 31.7646 0.00845172 -4.00618 1.36339 13.5296 14.2534 -0.0 0.0 -0.0 4.02281 31.2596 -5.1731 9.38269 33.1004 -65.6225 1.40873 34.9071 -0.442936 50.1146 0.977027 6.12549 6.8002 23.4671 -36.4413 0.0 0.0 0.0 16.5993 59.4631 -18.4845 -28.9015 0.0845697 4.38773 20.9018 -1.35745 -2.87256 -0.42726 0.0 0.0 -0.0 0.0 -0.0 -8.7317 14.9786 5.26736 -35.815 0.222208 -5.40356 40.6046 -3.79465 4.91061 -35.8581 0.0 0.0 0.0 0.0 0.0 
3450.75759268 719.697 -1516.09081143 21.2495678954 53.639729538 -24.6506161133 -5.90101 1.58857 3.0445 -5.89693 1.39172 3.13931 -5.80656 0.3584 3.41495 -5.82172 0.892934 3.31568 -15.6997 -10.3449 4.68418 -16.1468 -22.5227 0.739395 -0.0 0.0 -0.0 -5.39787 24.7824 -4.35657 7.94938 -15.3954 76.8599 2.6826 -53.0288 1.33852 31.4502 0.0192599 -3.96748 1.21566 14.1796 13.5252 -0.0 0.0 -0.0 3.69449 30.4676 -4.54987 10.5971 31.7759 -65.8998 1.37341 34.2275 -0.422895 50.1459 0.979274 6.12881 6.79959 23.7031 -36.2542 0.0 0.0 0.0 18.3226 58.965 -17.9142 -27.5613 0.12972 4.18701 19.8316 -1.56575 -2.74125 -0.096732 0.0 0.0 -0.0 0.0 -0.0 -10.2608 14.1057 6.0349 -34.897 0.17443 -5.27086 41.0523 -4.62757 4.94768 -35.09 0.0 0.0 0.0 0.0 0.0 
3437.5873254 714.317 -1512.44746549 21.7229576529 55.6544575659 -25.2903039234 -5.8456 1.0878 2.96754 -5.84115 0.896857 3.03066 -5.78147 -0.0784359 3.15949 -5.79515 0.421281 3.13229 -14.5554 -10.2743 4.5829 -14.9269 -22.366 0.909622 -0.0 0.0 -0.0 -5.65369 24.4362 -4.80119 5.27536 -14.4779 77.9618 2.47049 -50.7391 1.17161 30.553 0.0489313 -3.85674 1.28871 15.8461 14.5686 -0.0 0.0 -0.0 3.91024 29.8545 -5.08479 11.1253 32.0673 -65.0031 1.28627 32.503 -0.374964 50.1189 0.977336 6.12595 6.8554 24.2295 -36.279 0.0 0.0 0.0 19.5395 57.9821 -17.2586 -28.3491 0.103751 4.30511 19.0281 0.0511732 -2.62991 -1.3196 0.0 0.0 -0.0 0.0 -0.0 -11.1546 13.5476 6.40084 -34.5967 0.159263 -5.22728 40.6404 -4.10006 4.91323 -35.4243 0.0 0.0 0.0 0.0 0.0 
3431.41544289 707.084 -1510.21784287 22.2323566879 56.653392213 -26.0328931954 -5.47768 1.37836 2.96736 -5.47357 1.18683 3.04896 -5.39803 0.214212 3.26459 -5.41217 0.726841 3.18993 -15.1126 -10.394 4.82169 -15.5278 -22.7181 0.974418 -0.0 0.0 -0.0 -5.19923 23.81 -4.34703 4.06955 -15.7157 77.1888 2.16759 -47.031 0.943286 30.2845 0.0574753 -3.8235 0.93164 16.5335 12.5401 -0.0 0.0 -0.0 4.11399 30.0114 -5.50933 12.8081 32.335 -64.7467 1.05964 27.695 -0.261211 50.7704 1.02452 6.19475 6.73048 23.0992 -36.1783 0.0 0.0 0.0 27.2534 57.2388 -21.0755 -24.0719 0.22512 3.66008 19.271 -0.428455 -2.66332 -2.3204 0.0 0.0 -0.0 0.0 -0.0 -12.3107 13.8812 6.67625 -33.4722 0.104511 -5.06346 41.7273 -4.71239 5.00398 -34.9397 0.0 0.0 0.0 0.0 0.0 
3419.14254689 710.524 -1511.83754758 22.5053096057 58.290949234 -26.033426208 -5.16946 1.13411 2.81815 -5.16555 0.952561 2.88453 -5.10724 0.055381 3.03711 -5.11971 0.534124 2.99033 -14.8579 -9.94681 6.92418 -15.2006 -23.1197 3.18358 -0.0 0.0 -0.0 -5.39415 23.6491 -4.66083 1.71103 -15.9478 77.4547 1.70848 -40.2388 0.625912 28.6507 0.106084 -3.62047 0.584019 21.6756 12.1828 -0.0 0.0 -0.0 4.83688 29.6232 -7.12073 13.4411 32.4112 -63.8182 1.00938 26.5654 -0.238292 50.8256 1.02854 6.20055 6.73213 23.1206 -36.1748 0.0 0.0 0.0 27.0927 55.121 -19.0483 -17.5273 0.316877 2.66058 14.4702 0.324024 -2.03926 -3.54436 0.0 0.0 -0.0 0.0 -0.0 -12.0802 14.2528 5.89624 -33.9192 0.125892 -5.12871 40.8372 -4.23143 4.92977 -34.8784 0.0 0.0 0.0 0.0 0.0 
3406.91067423 706.077 -1511.09978799 22.019143515 60.412635157 -25.6632498105 -4.90051 1.31645 2.88221 -4.8966 1.13046 2.96005 -4.82744 0.218648 3.16084 -4.84067 0.714862 3.08677 -14.9837 -9.87046 7.30458 -15.3217 -23.1901 3.54581 -0.0 0.0 -0.0 -5.37261 23.6923 -4.61914 0.262297 -15.8501 77.5244 1.54484 -37.423 0.523273 28.1135 0.120799 -3.55343 0.517767 21.9877 11.8936 -0.0 0.0 -0.0 5.69509 29.5735 -8.99159 14.8876 32.7107 -63.7409 0.878535 23.5184 -0.182886 51.2372 1.0588 6.24372 6.69425 23.1265 -35.8748 0.0 0.0 0.0 26.6294 53.7716 -17.4467 -13.6234 0.317096 2.06173 13.7937 0.618694 -1.94806 -4.52568 0.0 0.0 -0.0 0.0 -0.0 -11.6401 14.357 5.41865 -33.5378 0.107616 -5.07304 40.7869 -3.83786 4.926 -34.8143 0.0 0.0 0.0 0.0 0.0 
3391.08848542 700.911 -1506.62132342 22.527419146 62.9460090055 -26.4933721587 -4.53089 1.00358 2.85437 -4.52673 0.819992 2.91238 -4.47566 -0.0463046 3.02517 -4.48817 0.431827 2.99457 -15.5064 -9.64739 8.39318 -15.837 -23.3571 4.55046 -0.0 0.0 -0.0 -6.01734 24.0785 -5.40478 -0.796675 -15.5864 78.4062 1.32345 -33.2471 0.395146 28.4533 0.111565 -3.59585 0.375827 23.7201 11.6524 -0.0 0.0 -0.0 6.2626 28.8242 -10.3119 15.3017 32.9414 -63.7092 0.920702 24.5168 -0.20005 50.6457 1.01542 6.18162 6.67426 23.0741 -35.7587 0.0 0.0 0.0 26.6655 52.6391 -16.4847 -11.6142 0.301309 1.75387 10.2481 0.596967 -1.46721 -3.89075 0.0 0.0 -0.0 0.0 -0.0 -12.3579 15.2096 5.41821 -33.7549 0.117971 -5.10474 41.4961 -5.14077 4.9849 -33.4927 0.0 0.0 0.0 0.0 0.0 
3370.18602953 694.738 -1505.45906893 23.6492384513 65.5467995669 -28.5155308384 -4.26803 0.968107 2.86002 -4.26382 0.784234 2.91576 -4.21494 -0.06784 3.01853 -4.22742 0.409515 2.99142 -15.6941 -8.51843 9.44679 -15.9073 -21.7955 5.9353 -0.0 0.0 -0.0 -6.59268 24.1896 -6.16962 -1.53951 -15.5162 78.8793 1.10689 -28.7361 0.283553 28.1651 0.119411 -3.55988 0.0335247 27.4024 10.9727 -0.0 0.0 -0.0 7.40734 28.5401 -12.8468 16.3155 33.3694 -63.7918 1.01764 26.7525 -0.241996 48.8614 0.888506 5.99165 6.93301 23.4661 -37.4867 0.0 0.0 0.0 26.2473 50.4864 -14.3848 -10.137 0.28282 1.52797 7.79227 -1.68173 -1.13197 -4.10172 0.0 0.0 -0.0 0.0 -0.0 -13.9852 16.7317 5.85066 -33.7553 0.117991 -5.1048 41.5738 -5.20166 4.99141 -31.4166 0.0 0.0 0.0 0.0 0.0 
